<?xml version="1.0" encoding="utf-8"?>
<!-- Generator: Adobe Illustrator 15.1.0, SVG Export Plug-In . SVG Version: 6.00 Build 0)  -->
<!DOCTYPE svg PUBLIC "-//W3C//DTD SVG 1.1//EN" "http://www.w3.org/Graphics/SVG/1.1/DTD/svg11.dtd">
<svg version="1.1" id="Layer_1" xmlns="http://www.w3.org/2000/svg" xmlns:xlink="http://www.w3.org/1999/xlink" x="0px" y="0px"
	 width="259.461px" height="50.142px" viewBox="0 0 259.461 50.142" enable-background="new 0 0 259.461 50.142"
	 xml:space="preserve">
<g>
	<path fill="#4F8ABE" d="M0,0v50.142h93.59V0H0z M22.076,21.818c0,4.194-1.578,6.721-6.179,6.721h-0.535v-4.195h0.444
		c1.94,0,2.164-1.218,2.164-3.337v-4.06c0-2.075-0.18-3.383-1.984-3.383h-2.028v27.422H9.763V9.416h6.135
		c4.644,0,6.179,2.615,6.179,6.81V21.818z M46.385,40.986h-3.969V25.472l0.045-5.277h-0.09l-3.745,14.929h-2.795l-3.699-14.929
		h-0.09l0.046,5.277v15.515h-3.97V9.416h4.646l4.51,18.355l4.465-18.355h4.646V40.986z M61.899,40.986h-5.368l-4.284-31.57h4.239
		l2.661,24.579h0.09l2.706-24.579h4.239L61.899,40.986z M84.718,32.102c0,5.818-1.532,9.291-6.493,9.291
		c-4.963,0-6.495-3.473-6.495-9.291V18.391c0-5.817,1.532-9.38,6.495-9.38c4.961,0,6.493,3.562,6.493,9.38v0.046h-4.193
		c0-3.248-0.135-5.232-2.3-5.232c-2.03,0-2.301,2.029-2.301,5.278v13.619c0,3.248,0.271,5.097,2.301,5.097
		c2.165,0,2.3-1.849,2.3-5.097v-0.857h4.193V32.102z M84.871,27.696l-2.165-1.573l-2.166,1.573l0.827-2.545l-2.165-1.573h2.676
		l0.828-2.546l0.827,2.546h2.676l-2.164,1.573L84.871,27.696z"/>
	<g>
		<path fill="#4F8ABE" d="M101.182,9.323h3.082c1.163,0,2.381,0,3.175,1.163c0.554,0.794,0.757,1.771,0.757,2.75
			c0,1.365-0.443,2.64-1.273,3.267c-0.812,0.591-1.901,0.591-2.528,0.591h-0.738v4.54h-2.474V9.323z M103.655,14.934h0.608
			c0.85,0,1.312-0.295,1.312-1.901c0-0.996-0.259-1.771-1.312-1.771h-0.608V14.934z"/>
		<path fill="#4F8ABE" d="M117.336,15.562c0,3.636-0.83,6.256-3.876,6.256c-1.919,0-2.64-1.163-2.786-1.402
			c-0.794-1.291-1.034-3.101-1.034-5.075c0-3.765,0.979-6.2,3.876-6.2C116.486,9.14,117.336,11.834,117.336,15.562z M112.573,12.11
			c-0.222,0.609-0.258,1.938-0.258,3.488c0,1.052,0,2.251,0.222,3.119c0.13,0.498,0.351,0.903,0.979,0.903
			c0.683,0,0.887-0.442,0.997-1.089c0.147-0.849,0.147-3.008,0.147-3.174c0-0.757,0-2.491-0.24-3.229
			c-0.203-0.609-0.479-0.793-0.96-0.793C113.072,11.336,112.777,11.557,112.573,12.11z"/>
		<path fill="#4F8ABE" d="M119.313,9.323h3.174c1.33,0,2.086,0.073,2.732,0.664c1.144,1.071,1.144,2.529,1.144,2.99
			c0,2.325-1.033,2.972-1.606,3.322l1.865,5.334h-2.657l-1.385-4.835h-0.794v4.835h-2.473V9.323z M121.786,14.769h0.701
			c0.979,0,1.367-0.646,1.367-1.81c0-1.272-0.555-1.697-1.367-1.697h-0.701V14.769z"/>
		<path fill="#4F8ABE" d="M132.029,21.634h-2.527v-9.984h-2.013V9.323h6.607v2.326h-2.067V21.634z"/>
		<path fill="#4F8ABE" d="M135.646,9.323h2.527v10.04h3.119v2.271h-5.646V9.323z"/>
		<path fill="#4F8ABE" d="M147.801,9.323l2.785,12.311h-2.545l-0.499-2.658h-2.437l-0.479,2.658h-2.271l2.823-12.311H147.801z
			 M147.265,16.982l-0.683-3.285c-0.109-0.498-0.203-0.96-0.258-2.067c-0.074,0.518-0.148,1.201-0.295,1.957l-0.665,3.396H147.265z"
			/>
		<path fill="#4F8ABE" d="M152.064,9.323h2.475l1.992,5.647c0.203,0.572,0.368,1.402,0.59,2.437
			c-0.093-1.255-0.184-3.138-0.184-3.747V9.323h2.049v12.311h-2.049l-2.308-6.294c-0.313-0.849-0.571-1.882-0.72-2.528
			c0.092,1.107,0.203,3.119,0.203,3.636v5.187h-2.049V9.323z"/>
		<path fill="#4F8ABE" d="M161.336,9.323h2.363c1.42,0,2.436,0.056,3.414,0.775c1.717,1.255,1.846,4.042,1.846,5.224
			c0,2.417-0.498,4.336-1.809,5.518c-0.462,0.387-1.256,0.794-2.512,0.794h-3.303V9.323z M163.81,19.474h0.738
			c0.258,0,1.126,0,1.421-0.812c0.258-0.738,0.312-2.399,0.312-3.101c0-3.728-0.626-4.097-1.733-4.097h-0.738V19.474z"/>
		<path fill="#4F8ABE" d="M175.988,9.323h3.471l0.94,5.187c0.222,1.145,0.314,2.417,0.388,3.524
			c0.093-1.347,0.369-3.118,0.517-3.782l1.052-4.929h3.396v12.311h-2.416V14.62c0-0.794,0.018-1.31,0.128-3.728
			c-0.11,0.794-0.407,2.971-0.536,3.617l-1.494,7.124h-1.588l-1.439-7.234c-0.166-0.851-0.352-2.345-0.48-3.507
			c0.02,0.959,0.074,2.473,0.074,3.432v7.31h-2.012V9.323z"/>
		<path fill="#4F8ABE" d="M190.494,14.343h2.971v2.05h-2.971v3.081h3.876v2.16h-6.404V9.323h6.404v2.159h-3.876V14.343z"/>
		<path fill="#4F8ABE" d="M200.127,21.634H197.6v-9.984h-2.012V9.323h6.607v2.326h-2.068V21.634z"/>
		<path fill="#4F8ABE" d="M203.744,9.323h3.175c1.329,0,2.085,0.073,2.731,0.664c1.144,1.071,1.144,2.529,1.144,2.99
			c0,2.325-1.032,2.972-1.606,3.322l1.865,5.334h-2.657l-1.384-4.835h-0.795v4.835h-2.473V9.323z M206.217,14.769h0.702
			c0.978,0,1.366-0.646,1.366-1.81c0-1.272-0.555-1.697-1.366-1.697h-0.702V14.769z"/>
		<path fill="#4F8ABE" d="M220.062,15.562c0,3.636-0.831,6.256-3.876,6.256c-1.92,0-2.641-1.163-2.787-1.402
			c-0.793-1.291-1.033-3.101-1.033-5.075c0-3.765,0.978-6.2,3.875-6.2C219.211,9.14,220.062,11.834,220.062,15.562z M215.299,12.11
			c-0.221,0.609-0.258,1.938-0.258,3.488c0,1.052,0,2.251,0.222,3.119c0.128,0.498,0.351,0.903,0.978,0.903
			c0.683,0,0.886-0.442,0.997-1.089c0.147-0.849,0.147-3.008,0.147-3.174c0-0.757,0-2.491-0.24-3.229
			c-0.203-0.609-0.48-0.793-0.959-0.793C215.797,11.336,215.501,11.557,215.299,12.11z"/>
		<path fill="#4F8ABE" d="M100.186,28.701h2.62l0.997,5.98c0.037,0.22,0.277,1.863,0.406,3.32c0.055-0.886,0.185-2.122,0.388-3.32
			l1.07-5.98h2.178l-2.584,12.31h-2.565L100.186,28.701z"/>
		<path fill="#4F8ABE" d="M111.899,33.721h2.972v2.049h-2.972v3.082h3.874v2.159h-6.402v-12.31h6.402v2.159h-3.874V33.721z"/>
		<path fill="#4F8ABE" d="M121.532,41.011h-2.529v-9.985h-2.011v-2.324h6.607v2.324h-2.067V41.011z"/>
		<path fill="#4F8ABE" d="M127.678,33.721h2.971v2.049h-2.971v3.082h3.875v2.159h-6.404v-12.31h6.404v2.159h-3.875V33.721z"/>
		<path fill="#4F8ABE" d="M133.363,28.701h3.174c1.329,0,2.086,0.074,2.732,0.664c1.143,1.07,1.143,2.528,1.143,2.99
			c0,2.326-1.033,2.971-1.604,3.321l1.863,5.334h-2.657l-1.384-4.836h-0.795v4.836h-2.473V28.701z M135.836,34.145h0.701
			c0.979,0,1.367-0.646,1.367-1.809c0-1.272-0.555-1.697-1.367-1.697h-0.701V34.145z"/>
		<path fill="#4F8ABE" d="M147.287,28.701l2.787,12.31h-2.547l-0.498-2.657h-2.436l-0.48,2.657h-2.27l2.823-12.31H147.287z
			 M146.752,36.36l-0.683-3.286c-0.11-0.498-0.203-0.959-0.258-2.066c-0.073,0.518-0.148,1.2-0.296,1.956l-0.664,3.396H146.752z"/>
		<path fill="#4F8ABE" d="M151.553,28.701h2.474l1.993,5.647c0.201,0.571,0.368,1.401,0.59,2.436
			c-0.094-1.255-0.184-3.137-0.184-3.747v-4.336h2.048v12.31h-2.048l-2.309-6.294c-0.314-0.85-0.572-1.881-0.721-2.528
			c0.094,1.108,0.204,3.119,0.204,3.636v5.187h-2.048V28.701z"/>
		<path fill="#4F8ABE" d="M165.312,32.17c-0.294-1.199-0.867-1.439-1.401-1.439c-1.016,0-1.071,0.998-1.071,1.199
			c0,0.906,0.387,1.09,2.196,1.92c0.756,0.368,2.344,1.107,2.344,3.451c0,2.289-1.347,3.895-3.729,3.895
			c-2.805,0-3.395-2.123-3.616-3.322l2.011-0.701c0.295,1.311,0.721,1.809,1.605,1.809c1.145,0,1.255-0.996,1.255-1.291
			c0-0.832-0.553-1.182-1.032-1.404c-1.551-0.773-2.309-1.125-2.843-1.974c-0.333-0.517-0.554-1.274-0.554-2.049
			c0-1.864,1.182-3.746,3.359-3.746c2.528,0,3.156,2.122,3.358,2.823L165.312,32.17z"/>
		<path fill="#4F8ABE" d="M179.115,33.443c-0.035-1.255-0.184-2.73-1.383-2.73c-0.555,0-0.831,0.221-1.053,0.812
			c-0.332,0.885-0.332,2.786-0.332,3.506c0,0.941,0,2.437,0.295,3.211c0.203,0.498,0.48,0.757,1.016,0.757
			c0.961,0,1.291-0.536,1.457-2.454l2.141,0.166c-0.073,1.089-0.313,4.484-3.652,4.484c-2.75,0-3.932-2.27-3.932-6.275
			c0-2.454,0.498-6.403,4.005-6.403c3.321,0,3.562,3.118,3.671,4.743L179.115,33.443z"/>
		<path fill="#4F8ABE" d="M190.527,34.938c0,3.636-0.832,6.257-3.876,6.257c-1.92,0-2.64-1.163-2.788-1.402
			c-0.793-1.292-1.032-3.102-1.032-5.076c0-3.765,0.978-6.2,3.875-6.2C189.678,28.517,190.527,31.211,190.527,34.938z
			 M185.766,31.488c-0.223,0.609-0.26,1.938-0.26,3.487c0,1.053,0,2.251,0.223,3.119c0.129,0.499,0.35,0.904,0.978,0.904
			c0.683,0,0.886-0.442,0.997-1.089c0.146-0.849,0.146-3.009,0.146-3.174c0-0.758,0-2.492-0.238-3.23
			c-0.203-0.608-0.48-0.793-0.96-0.793C186.264,30.713,185.968,30.934,185.766,31.488z"/>
		<path fill="#4F8ABE" d="M192.505,28.701h2.472l1.994,5.647c0.203,0.571,0.369,1.401,0.591,2.436
			c-0.092-1.255-0.185-3.137-0.185-3.747v-4.336h2.049v12.31h-2.049l-2.307-6.294c-0.314-0.85-0.572-1.881-0.721-2.528
			c0.093,1.108,0.203,3.119,0.203,3.636v5.187h-2.048V28.701z"/>
		<path fill="#4F8ABE" d="M201.775,28.701h2.473l1.993,5.647c0.205,0.571,0.37,1.401,0.593,2.436
			c-0.094-1.255-0.186-3.137-0.186-3.747v-4.336h2.048v12.31h-2.048l-2.308-6.294c-0.313-0.85-0.571-1.881-0.719-2.528
			c0.092,1.108,0.202,3.119,0.202,3.636v5.187h-2.049V28.701z"/>
		<path fill="#4F8ABE" d="M213.576,33.721h2.971v2.049h-2.971v3.082h3.875v2.159h-6.403v-12.31h6.403v2.159h-3.875V33.721z"/>
		<path fill="#4F8ABE" d="M224.092,33.443c-0.036-1.255-0.184-2.73-1.383-2.73c-0.553,0-0.83,0.221-1.053,0.812
			c-0.332,0.885-0.332,2.786-0.332,3.506c0,0.941,0,2.437,0.296,3.211c0.204,0.498,0.479,0.757,1.015,0.757
			c0.96,0,1.293-0.536,1.457-2.454l2.142,0.166c-0.073,1.089-0.313,4.484-3.653,4.484c-2.75,0-3.932-2.27-3.932-6.275
			c0-2.454,0.498-6.404,4.005-6.404c3.322,0,3.562,3.119,3.673,4.744L224.092,33.443z"/>
		<path fill="#4F8ABE" d="M231.967,41.011h-2.527v-9.985h-2.012v-2.324h6.606v2.324h-2.067V41.011z"/>
		<path fill="#4F8ABE" d="M235.584,28.701h2.528v12.31h-2.528V28.701z"/>
		<path fill="#4F8ABE" d="M247.807,34.938c0,3.636-0.83,6.257-3.875,6.257c-1.92,0-2.641-1.163-2.787-1.402
			c-0.795-1.292-1.033-3.102-1.033-5.076c0-3.765,0.977-6.201,3.875-6.201C246.959,28.516,247.807,31.211,247.807,34.938z
			 M243.046,31.488c-0.222,0.609-0.258,1.938-0.258,3.487c0,1.053,0,2.251,0.221,3.119c0.13,0.499,0.351,0.904,0.978,0.904
			c0.682,0,0.885-0.442,0.998-1.089c0.147-0.849,0.147-3.009,0.147-3.174c0-0.758,0-2.492-0.24-3.23
			c-0.204-0.608-0.48-0.793-0.96-0.793C243.543,30.713,243.249,30.934,243.046,31.488z"/>
		<path fill="#4F8ABE" d="M249.785,28.701h2.474l1.993,5.647c0.203,0.571,0.369,1.401,0.59,2.436
			c-0.093-1.255-0.184-3.137-0.184-3.747v-4.336h2.047v12.31h-2.047l-2.309-6.294c-0.313-0.85-0.571-1.881-0.719-2.528
			c0.092,1.108,0.202,3.119,0.202,3.636v5.187h-2.048V28.701z"/>
	</g>
</g>
</svg>
