<?xml version="1.0" encoding="utf-8"?>
<!-- Generator: Adobe Illustrator 15.1.0, SVG Export Plug-In . SVG Version: 6.00 Build 0)  -->
<!DOCTYPE svg PUBLIC "-//W3C//DTD SVG 1.1//EN" "http://www.w3.org/Graphics/SVG/1.1/DTD/svg11.dtd">
<svg version="1.1" id="Layer_1" xmlns="http://www.w3.org/2000/svg" xmlns:xlink="http://www.w3.org/1999/xlink" x="0px" y="0px"
	 width="35px" height="35px" viewBox="0 0 35 35" enable-background="new 0 0 35 35" xml:space="preserve">
<g>
	<path fill="#FFFFFF" d="M17.499,34.398c9.333,0,16.899-7.566,16.899-16.898S26.832,0.602,17.499,0.602
		C8.167,0.602,0.602,8.168,0.602,17.5S8.167,34.398,17.499,34.398"/>
	<g>
		<path id="Meetup" fill="#231F20" d="M16.388,19.427c-0.083,0-0.166-0.007-0.229-0.094c0.019-0.328,0.126-0.575,0.23-0.812
			c0.047-0.106,0.094-0.213,0.132-0.327l0.047-0.136l0.039,0.138c0.09,0.317,0.062,0.91-0.079,1.229L16.388,19.427z M26.776,17.35
			l-0.041,0.039c-0.711,0.669-0.969,1.807-1.154,2.818c0.593-0.159,1.097-0.707,1.314-1.31c0.132-0.367,0.224-0.927-0.091-1.498
			L26.776,17.35z M13.799,19.175c0.037,0.014,0.08,0.031,0.139,0.031l0.029-0.007l0.072-0.035c0.056-0.272,0.038-0.625-0.047-0.969
			c-0.219,0.249-0.352,0.538-0.402,0.909l-0.007,0.05l0.111-0.006C13.735,19.149,13.766,19.16,13.799,19.175z M29.896,23.634
			c0,0.49-0.397,0.888-0.889,0.888H5.915c-0.491,0-0.889-0.397-0.889-0.888V10.49c0-0.491,0.397-0.889,0.889-0.889h23.092
			c0.491,0,0.889,0.397,0.889,0.889V23.634z M12.495,20.804c-0.246-0.68-0.406-1.449-0.559-2.204
			c-0.199-0.968-0.403-1.951-0.751-2.719c-0.041,0.004-0.082,0.042-0.121,0.042c-0.123,0-0.229,0.029-0.337,0.012
			c-0.101-0.018-0.203,0.087-0.322,0.087c-0.012,0-0.023,0-0.035,0c-0.03,0-0.059-0.122-0.072-0.13
			c-0.554,0.748-0.744,1.76-0.994,2.786c-0.139-0.243-0.266-0.492-0.392-0.748C8.689,17.482,8.46,17.022,8.2,16.653
			c-0.073-0.006-0.145-0.007-0.212-0.007c-0.298,0-0.569,0.054-0.823,0.128l-0.013,0.688c-0.028,1.183-0.052,2.203,0.246,3.167
			c0.056,0.009,0.111,0.013,0.167,0.013c0.357,0,0.674-0.174,0.811-0.244c0.021-0.302-0.016-0.537-0.055-0.787
			c-0.021-0.129-0.042-0.259,0.026-0.426c0.207,0.268,0.389,0.562,0.57,0.856c0.115,0.187,0.23,0.372,0.319,0.533
			c0.06,0.006,0.116,0.009,0.17,0.009c0.14,0,0.263-0.018,0.386-0.034c0.128-0.018,0.255-0.034,0.399-0.034l0.082,0.03
			c0.164-0.364,0.173-0.899,0.182-1.418c0.008-0.477,0.017-0.968,0.228-1.334c0.23,1.063,0.545,2.097,0.959,3.156
			c0.146-0.02,0.308-0.07,0.457-0.115c0.11-0.035,0.211-0.068,0.291-0.068C12.432,20.765,12.467,20.784,12.495,20.804z
			 M15.355,21.027c-0.079-0.145-0.193-0.212-0.357-0.212c-0.124,0-0.267,0.035-0.403,0.073c-0.141,0.038-0.285,0.074-0.415,0.074
			c-0.036,0-0.069-0.009-0.103-0.016c-0.156-0.03-0.282-0.128-0.374-0.264c-0.166-0.246-0.206-0.651-0.058-1.144
			c0.24,0.065,0.541,0.075,0.871,0.075c0.027,0,0.055,0,0.081,0c0.085,0,0.162,0.026,0.212,0.048
			c0.162-0.66,0.075-1.558-0.055-2.075c-0.101-0.021-0.19-0.057-0.28-0.089c-0.156-0.053-0.302-0.105-0.503-0.105
			c-0.034,0-0.07-0.002-0.106,0.002c-0.635,0.086-1.065,0.976-1.164,1.812c-0.092,0.771,0.075,1.698,0.813,1.983
			c0.152,0.059,0.341,0.088,0.561,0.088C14.515,21.279,15.024,21.156,15.355,21.027z M17.875,20.838
			c-0.04-0.133-0.155-0.205-0.325-0.259c-0.146,0.225-0.37,0.35-0.638,0.35c-0.283,0-0.564-0.144-0.733-0.377
			c-0.161-0.222-0.2-0.499-0.058-0.808c0.229,0.046,0.452,0.089,0.661,0.089c0.173,0,0.329-0.027,0.46-0.043
			c-0.04-0.507,0.019-0.862,0.081-1.238c0.052-0.314,0.105-0.639,0.117-1.032c-0.289-0.218-0.597-0.33-0.939-0.36
			c-0.847,0.647-1.239,1.639-1.203,3.024c0.116,0.612,0.924,0.991,1.605,0.991C17.319,21.175,17.669,21.041,17.875,20.838z
			 M20.807,18.939c-0.104-0.084-0.194-0.184-0.283-0.283c-0.169-0.189-0.328-0.368-0.588-0.438c-0.054,0.001-0.064,0.04-0.07,0.159
			c-0.005,0.097-0.014,0.245-0.16,0.245l-0.102,0.001l0.005-0.035c0.036-0.43,0.005-0.924-0.03-1.473
			c-0.047-0.777-0.097-1.503,0.041-2.161c-0.171-0.205-0.432-0.313-0.938-0.313c-0.007,0-0.012,0-0.019,0
			c-0.041,0-0.079-0.13-0.091-0.152c-0.26,0.799-0.134,1.676-0.012,2.634c0.07,0.547,0.137,1.057,0.056,1.551
			c-0.1,0-0.201-0.012-0.299-0.02c-0.088-0.008-0.174-0.017-0.251-0.017c-0.145,0-0.231,0.025-0.283,0.084
			c-0.06,0.066-0.077,0.18-0.073,0.316c0.199,0.137,0.545,0.146,0.879,0.154l0.21,0.048c0.01,0.292,0.032,0.57,0.055,0.85
			c0.034,0.409,0.067,0.832,0.059,1.292c0.089-0.012,0.169-0.016,0.246-0.021c0.149-0.009,0.291-0.018,0.451-0.037
			c-0.006-0.326-0.018-0.637-0.029-0.937c-0.016-0.417-0.031-0.813,0.005-1.243c0.148-0.042,0.327-0.053,0.5-0.061
			C20.375,19.065,20.676,19.049,20.807,18.939z M23.891,18.42c-0.208-0.171-0.466-0.464-0.759-0.464c-0.023,0-0.046,0-0.066,0
			c-0.032,0-0.059,0.08-0.073,0.065l-0.007,0.308c-0.02,0.84-0.048,2.004-0.852,2.282c-0.077-0.504-0.098-1.055-0.116-1.548
			c-0.011-0.263-0.021-0.501-0.012-0.668c-0.078-0.037-0.15-0.077-0.221-0.12c-0.2-0.12-0.388-0.232-0.691-0.272
			c-0.121,1.445,0.024,2.402,0.431,2.844c0.168,0.183,0.384,0.275,0.642,0.275c0.181,0,0.386-0.044,0.591-0.117l0.077-0.119
			c0.146-0.223,0.24-0.37,0.457-0.534c0.056-0.1,0.115-0.222,0.175-0.316C23.731,19.61,23.982,19.155,23.891,18.42z M27.771,17.06
			c-0.442-0.26-0.828-0.385-1.18-0.385c-0.438,0-0.817,0.197-1.16,0.603c-0.646,0.763-0.781,2.351-0.874,3.15
			c-0.038,0.017-0.081,0.029-0.125,0.042c-0.111,0.033-0.217,0.065-0.258,0.117c0.34,0.394,0.407,1.061,0.472,1.705
			c0.051,0.497,0.102,1.012,0.247,1.361c0.081,0.017,0.194,0.026,0.347,0.026c0.072,0,0.147-0.002,0.222-0.002
			c0.127,0,0.251,0.005,0.35,0.034c-0.235-0.592-0.327-1.396-0.254-2.57c0.958-0.226,1.81-0.906,2.222-1.774
			C28.027,18.843,28.226,18.013,27.771,17.06z"/>
		<rect x="6.236" y="10.829" fill="#FFFFFF" width="22.458" height="2.458"/>
	</g>
</g>
</svg>
