<?xml version="1.0" encoding="utf-8"?>
<!-- Generator: Adobe Illustrator 15.1.0, SVG Export Plug-In . SVG Version: 6.00 Build 0)  -->
<!DOCTYPE svg PUBLIC "-//W3C//DTD SVG 1.1//EN" "http://www.w3.org/Graphics/SVG/1.1/DTD/svg11.dtd">
<svg version="1.1" id="Layer_1" xmlns="http://www.w3.org/2000/svg" xmlns:xlink="http://www.w3.org/1999/xlink" x="0px" y="0px"
	 width="35px" height="35px" viewBox="0 0 35 35" enable-background="new 0 0 35 35" xml:space="preserve">
<g>
	<path fill="#FFFFFF" d="M17.5,34.398c9.332,0,16.898-7.566,16.898-16.898S26.832,0.602,17.5,0.602
		C8.167,0.602,0.602,8.168,0.602,17.5S8.167,34.398,17.5,34.398"/>
	<path fill="#231F20" d="M13.423,14.639h1.747v-1.697c0-0.748,0.02-1.902,0.562-2.619c0.572-0.756,1.36-1.271,2.713-1.271
		c2.203,0,3.132,0.314,3.132,0.314l-0.437,2.588c0,0-0.729-0.211-1.408-0.211s-1.287,0.244-1.287,0.924v1.973h2.785l-0.195,2.527
		h-2.59v8.783H15.17v-8.783h-1.747V14.639z"/>
</g>
</svg>
