<?xml version="1.0" encoding="utf-8"?>
<!-- Generator: Adobe Illustrator 17.1.0, SVG Export Plug-In . SVG Version: 6.00 Build 0)  -->
<!DOCTYPE svg PUBLIC "-//W3C//DTD SVG 1.1//EN" "http://www.w3.org/Graphics/SVG/1.1/DTD/svg11.dtd">
<svg version="1.1" id="Layer_1" xmlns="http://www.w3.org/2000/svg" xmlns:xlink="http://www.w3.org/1999/xlink" x="0px" y="0px"
	 viewBox="0 0 310 74.4" enable-background="new 0 0 310 74.4" xml:space="preserve">
<polygon fill="#FFFFFF" stroke="#4E89BB" stroke-width="3" stroke-miterlimit="10" points="42,5.3 49.9,29.7 75.5,29.7 54.8,44.7 
	62.7,69.1 42,54 21.3,69.1 29.2,44.7 8.5,29.7 34.1,29.7 "/>
<polygon fill="#4E89BB" stroke="#4E89BB" stroke-width="3" stroke-miterlimit="10" points="117.4,5.3 125.3,29.7 150.9,29.7 
	130.2,44.7 138.1,69.1 117.4,54 96.7,69.1 104.6,44.7 83.9,29.7 109.5,29.7 "/>
<polygon fill="#231F20" stroke="#231F20" stroke-width="3" stroke-miterlimit="10" points="192.8,5.3 200.7,29.7 226.3,29.7 
	205.6,44.7 213.5,69.1 192.8,54 172,69.1 180,44.7 159.2,29.7 184.8,29.7 "/>
<polygon fill="#FFFFFF" stroke="#231F20" stroke-width="3" stroke-miterlimit="10" points="268,5.3 275.9,29.7 301.5,29.7 
	280.8,44.7 288.7,69.1 268,54 247.3,69.1 255.2,44.7 234.5,29.7 260.1,29.7 "/>
</svg>
