<?xml version="1.0" encoding="utf-8"?>
<!-- Generator: Adobe Illustrator 17.1.0, SVG Export Plug-In . SVG Version: 6.00 Build 0)  -->
<!DOCTYPE svg PUBLIC "-//W3C//DTD SVG 1.1//EN" "http://www.w3.org/Graphics/SVG/1.1/DTD/svg11.dtd">
<svg version="1.1" id="Layer_1" xmlns="http://www.w3.org/2000/svg" xmlns:xlink="http://www.w3.org/1999/xlink" x="0px" y="0px"
	 viewBox="0 0 701.1 169.2" enable-background="new 0 0 701.1 169.2" xml:space="preserve">
<g>
	<g>
		<path fill="#FFFFFF" d="M49.6,64.4c-1.8-7.3-5.3-8.8-8.6-8.8c-6.2,0-6.5,6.1-6.5,7.3c0,5.5,2.4,6.6,13.4,11.7
			c4.6,2.3,14.3,6.8,14.3,21c0,14-8.2,23.7-22.7,23.7c-17.1,0-20.7-12.9-22.1-20.3l12.3-4.3c1.8,8,4.4,11,9.8,11
			c7,0,7.7-6.1,7.7-7.9c0-5.1-3.4-7.2-6.3-8.6c-9.5-4.7-14.1-6.9-17.3-12c-2-3.2-3.4-7.8-3.4-12.5c0-11.4,7.2-22.8,20.5-22.8
			C56,42.1,59.8,55,61,59.3L49.6,64.4z"/>
		<path fill="#FFFFFF" d="M93.8,118.3H78.4V57.4H66.1V43.2h40.3v14.2H93.8V118.3z"/>
		<path fill="#FFFFFF" d="M136.4,43.2l17,75.1h-15.5l-3-16.2H120l-2.9,16.2h-13.8l17.2-75.1H136.4z M133.2,89.9l-4.2-20
			c-0.7-3-1.2-5.9-1.6-12.6c-0.5,3.2-0.9,7.3-1.8,11.9l-4.1,20.7H133.2z"/>
		<path fill="#FFFFFF" d="M163.7,87.5l-15-44.2h16.2l6.5,23.9c1.2,4.3,1.4,8.8,1.4,11.9c0.2-3.9,0.8-8.1,1.9-11.9l7.2-23.9h13.8
			l-16.7,44.2v30.8h-15.4V87.5z"/>
		<path fill="#FFFFFF" d="M260.3,72.2c-0.2-7.7-1.1-16.7-8.4-16.7c-3.4,0-5.1,1.4-6.4,5c-2,5.4-2,17-2,21.4c0,5.7,0,14.9,1.8,19.6
			c1.2,3,2.9,4.6,6.2,4.6c5.9,0,7.9-3.3,8.9-15l13.1,1c-0.5,6.6-1.9,27.3-22.3,27.3c-16.8,0-24-13.8-24-38.3c0-15,3-39,24.4-39
			c20.3,0,21.7,19,22.4,28.9L260.3,72.2z"/>
		<path fill="#FFFFFF" d="M327.2,81.3c0,22.2-5.1,38.1-23.6,38.1c-11.7,0-16.1-7.1-17-8.6c-4.8-7.9-6.3-18.9-6.3-30.9
			c0-23,6-37.8,23.6-37.8C322,42.1,327.2,58.5,327.2,81.3z M298.1,60.2c-1.4,3.7-1.6,11.8-1.6,21.3c0,6.4,0,13.7,1.4,19
			c0.8,3,2.1,5.5,6,5.5c4.2,0,5.4-2.7,6.1-6.6c0.9-5.2,0.9-18.3,0.9-19.4c0-4.6,0-15.2-1.5-19.7c-1.2-3.7-2.9-4.8-5.9-4.8
			C301.2,55.5,299.4,56.8,298.1,60.2z"/>
		<path fill="#FFFFFF" d="M336.5,43.2h15.1l12.2,34.4c1.2,3.5,2.2,8.6,3.6,14.9c-0.6-7.7-1.1-19.1-1.1-22.8V43.2h12.5v75.1h-12.5
			l-14.1-38.4c-1.9-5.2-3.5-11.5-4.4-15.4c0.6,6.8,1.2,19,1.2,22.2v31.6h-12.5V43.2z"/>
		<path fill="#FFFFFF" d="M390.3,43.2h15.1l12.2,34.4c1.2,3.5,2.3,8.6,3.6,14.9c-0.6-7.7-1.1-19.1-1.1-22.8V43.2h12.5v75.1H420
			l-14.1-38.4c-1.9-5.2-3.5-11.5-4.4-15.4c0.6,6.8,1.2,19,1.2,22.2v31.6h-12.5V43.2z"/>
		<path fill="#FFFFFF" d="M459.5,73.8h18.1v12.5h-18.1v18.8h23.6v13.2h-39V43.2h39v13.2h-23.6V73.8z"/>
		<path fill="#FFFFFF" d="M520.9,72.2c-0.2-7.7-1.1-16.7-8.4-16.7c-3.4,0-5.1,1.4-6.4,5c-2,5.4-2,17-2,21.4c0,5.7,0,14.9,1.8,19.6
			c1.2,3,2.9,4.6,6.2,4.6c5.9,0,7.9-3.3,8.9-15l13.1,1c-0.5,6.6-1.9,27.3-22.3,27.3c-16.8,0-24-13.8-24-38.3c0-15,3-39,24.4-39
			c20.3,0,21.7,19,22.4,28.9L520.9,72.2z"/>
		<path fill="#FFFFFF" d="M566.3,118.3h-15.4V57.4h-12.3V43.2h40.3v14.2h-12.6V118.3z"/>
		<path fill="#FFFFFF" d="M601,73.8h18.1v12.5H601v18.8h23.6v13.2h-39V43.2h39v13.2H601V73.8z"/>
		<path fill="#FFFFFF" d="M633,43.2h14.4c8.7,0,14.9,0.3,20.8,4.7c10.5,7.7,11.3,24.6,11.3,31.8c0,14.7-3,26.4-11,33.6
			c-2.8,2.4-7.7,4.8-15.3,4.8H633V43.2z M648.1,105.1h4.5c1.6,0,6.9,0,8.7-5c1.6-4.5,1.9-14.6,1.9-18.9c0-22.7-3.8-25-10.6-25h-4.5
			V105.1z"/>
	</g>
	<line fill="none" stroke="#FFFFFF" stroke-width="16" stroke-miterlimit="10" x1="10.7" y1="145.6" x2="690.4" y2="145.6"/>
	<line fill="none" stroke="#FFFFFF" stroke-width="16" stroke-miterlimit="10" x1="10.7" y1="22.8" x2="690.4" y2="22.8"/>
</g>
</svg>
